<svg xmlns="http://www.w3.org/2000/svg" viewBox="0 0 512 512"><path d="M330.203 282.539l-148.395-.077-28.972 209.462c-1.468 10.612 6.777 20.076 17.49 20.076h171.347c10.713 0 18.958-9.464 17.49-20.076l-28.96-209.385z" fill="#ff913c"/><path d="M177.212 315.688c23.51 12.567 50.318 19.744 78.788 19.744s55.278-7.177 78.788-19.744l-4.585-33.15-148.395-.077-4.596 33.227z" fill="#d77431"/><path d="M317.799 61.752l58.055-58.055c7.897-7.897 21.401-2.304 21.401 8.865v155.131c-.001-50.318-39.844-80.92-79.456-105.941z" fill="#ff913c"/><path d="M397.254 167.693c0 78.013-63.242 141.254-141.254 141.254s-141.254-63.242-141.254-141.254S177.987 35.267 256 35.267 397.254 89.68 397.254 167.693z" fill="#ffaa50"/><path d="M194.201 167.693c0-67.988 39.038-118.021 91.024-129.765A161.823 161.823 0 0 0 256 35.267c-25.994 0-50.266 6.155-71.187 17.097L136.146 3.697c-7.897-7.897-21.401-2.304-21.401 8.865v155.131c0-3.184 0-3.167 0 0 0 78.013 63.242 141.254 141.254 141.254 10.025 0 19.792-1.079 29.225-3.064-51.985-13.467-91.023-70.203-91.023-138.19z" fill="#ff913c"/><g fill="#faebc8"><ellipse cx="225.1" cy="229.49" rx="30.899" ry="26.485"/><ellipse cx="286.9" cy="229.49" rx="30.899" ry="26.485"/></g><circle cx="256" cy="211.84" r="17.657" fill="#ff913c"/><path d="M317.764 414.155c-.397-4.854-4.509-8.462-9.527-8.065a8.823 8.823 0 0 0-8.061 9.531l1.672 20.066c2.235 26.823-18.932 49.828-45.849 49.828-26.916 0-48.084-23.005-45.849-49.828l1.672-20.066c.405-4.858-3.199-9.126-8.061-9.531-5-.392-9.122 3.211-9.527 8.065L186.082 512h139.836l-8.154-97.845z" fill="#d77431"/><g fill="#553732"><path d="M203.03 176.521a8.826 8.826 0 0 1-8.828-8.828v-8.828c0-4.875 3.949-8.828 8.828-8.828s8.828 3.953 8.828 8.828v8.828a8.826 8.826 0 0 1-8.828 8.828zM308.97 176.521a8.826 8.826 0 0 1-8.828-8.828v-8.828a8.826 8.826 0 0 1 8.828-8.828 8.826 8.826 0 0 1 8.828 8.828v8.828a8.825 8.825 0 0 1-8.828 8.828z"/></g></svg>